<svg width="323" height="445" viewBox="0 0 323 445" fill="none" xmlns="http://www.w3.org/2000/svg">
<path d="M185.456 170.316V165.45H137.492V170.316H158.835L158.789 232.278H164.159V170.316H185.456Z" fill="#C2B8D0"/>
<line y1="-0.625" x2="68.591" y2="-0.625" transform="matrix(0.498963 0.866623 -0.933679 0.35811 115.046 347.754)" stroke="#C2B8D0" stroke-width="1.25"/>
<line y1="-0.625" x2="68.591" y2="-0.625" transform="matrix(0.498963 0.866623 -0.933679 0.35811 75.3938 279.588)" stroke="#C2B8D0" stroke-width="1.25"/>
<line y1="-0.625" x2="68.591" y2="-0.625" transform="matrix(0.498963 0.866623 -0.933679 0.35811 36.5383 211.083)" stroke="#C2B8D0" stroke-width="1.25"/>
<line y1="-0.625" x2="68.591" y2="-0.625" transform="matrix(0.498963 -0.866623 0.933679 0.35811 174.209 407.197)" stroke="#C2B8D0" stroke-width="1.25"/>
<line y1="-0.625" x2="68.591" y2="-0.625" transform="matrix(0.498963 -0.866623 0.933679 0.35811 213.547 339.03)" stroke="#C2B8D0" stroke-width="1.25"/>
<line y1="-0.625" x2="68.591" y2="-0.625" transform="matrix(0.498963 -0.866623 0.933679 0.35811 252.402 270.525)" stroke="#C2B8D0" stroke-width="1.25"/>
<path d="M163 2.00003L322 166" stroke="#C2B8D0" stroke-width="1.5"/>
<path d="M162.32 443.064L322 165.682" stroke="#C2B8D0" stroke-width="1.5"/>
<path d="M1.99997 167.355L161.264 444" stroke="#C2B8D0" stroke-width="1.5"/>
<line x1="1.46305" y1="167.476" x2="163.344" y2="1.47636" stroke="#C2B8D0" stroke-width="1.5"/>
<path d="M163 16L291.258 163.669" stroke="#C2B8D0"/>
<path d="M291 163L161.739 412.031" stroke="#C2B8D0"/>
<path d="M32.2209 163.906L161.739 412.031" stroke="#C2B8D0"/>
<line x1="31.8447" y1="165.074" x2="162.624" y2="15.6707" stroke="#C2B8D0"/>
<path d="M179.083 355.375L161.5 388.662L143.917 355.375H179.083Z" stroke="#C2B8D0" stroke-width="1.25"/>
</svg>
